<svg xmlns="http://www.w3.org/2000/svg" viewBox="0 0 512 512">
  <defs>
    <linearGradient id="shell" x1="0%" y1="0%" x2="100%" y2="100%">
      <stop offset="0%" style="stop-color:#F59E0B"/>
      <stop offset="100%" style="stop-color:#D97706"/>
    </linearGradient>
    <linearGradient id="meat" x1="0%" y1="0%" x2="0%" y2="100%">
      <stop offset="0%" style="stop-color:#92400E"/>
      <stop offset="100%" style="stop-color:#78350F"/>
    </linearGradient>
  </defs>
  <circle cx="256" cy="256" r="240" fill="#1F2937"/>
  <path d="M 120 310 Q 130 160 256 140 Q 382 160 392 310" fill="none" stroke="url(#shell)" stroke-width="36" stroke-linecap="round"/>
  <path d="M 155 280 Q 200 210 256 200 Q 312 210 357 280" fill="#34D399" opacity="0.9"/>
  <path d="M 165 290 Q 210 235 256 225 Q 302 235 347 290" fill="#92400E" opacity="0.9"/>
  <circle cx="210" cy="260" r="12" fill="#EF4444" opacity="0.85"/>
  <circle cx="256" cy="245" r="10" fill="#EF4444" opacity="0.85"/>
  <circle cx="300" cy="258" r="11" fill="#EF4444" opacity="0.85"/>
  <path d="M 180 295 Q 185 315 178 325" fill="none" stroke="#FCD34D" stroke-width="6" stroke-linecap="round"/>
  <path d="M 330 295 Q 325 318 332 328" fill="none" stroke="#FCD34D" stroke-width="6" stroke-linecap="round"/>
  <rect x="330" y="340" rx="12" ry="12" width="64" height="36" fill="#F59E0B"/>
  <text x="362" y="365" font-family="system-ui,-apple-system,sans-serif" font-size="22" font-weight="700" fill="#1F2937" text-anchor="middle">DB</text>
</svg>
